<svg width="256" height="256" fill="none" xmlns="http://www.w3.org/2000/svg">
    <style>
        #flame { fill: #FFC624; }
        #flame2 { fill: #008C5B; }
        #a { fill: #FFC624; }
        @media (prefers-color-scheme: dark) {
            #a { fill: #fff; }
        }
    </style>
    <path id="flame" fill-rule="evenodd" clip-rule="evenodd" d="M232.972 59.4697L177.806 3.77662C174.942 0.91175 170.99 -0.406091 167.094 0.109586L78.9905 10.8242C43.474 15.2934 15.5191 43.2546 11.1082 78.779L0.109561 167.418C-0.406 171.314 0.911546 175.268 3.77578 178.133L58.6544 233.539C59.4564 234.342 60.7167 233.826 60.7167 232.737L78.9905 85.5401C79.2769 82.6752 81.6256 80.326 84.719 79.8103L231.883 61.5324C233.201 61.5324 233.716 60.2146 232.914 59.4697H232.972Z" />
    <path id="flame" fill-rule="evenodd" clip-rule="evenodd" d="M256 83.4774L245.001 174.695C240.533 211.308 211.547 240.071 174.942 244.483L84.7762 256C83.9742 256 83.2295 255.484 83.2295 254.453L91.3066 191.426C91.593 188.274 94.1709 185.925 97.0351 185.696L169.958 176.528C173.109 176.242 175.458 173.664 175.687 170.799L184.566 97.6299C184.852 94.4785 187.43 92.1293 190.294 91.9001L254.339 82.2169C255.37 81.9304 256.172 82.5033 255.885 83.5347L256 83.4774Z" />
    <path id="flame2" fill-rule="evenodd" clip-rule="evenodd" d="M158.215 96.0255L104.654 102.557C103.623 102.844 102.821 103.589 102.592 104.62L96.3479 157.964C96.3479 158.766 96.8635 159.282 97.6654 159.282L150.997 153.036C152.029 153.036 152.831 152.005 153.06 150.974L159.59 97.1142C159.59 96.5985 159.075 96.0828 158.273 96.0828L158.215 96.0255Z" />

</svg>

